<svg width="16" height="16" viewBox="0 0 16 16" fill="none" xmlns="http://www.w3.org/2000/svg">
<g clip-path="url(#clip0_234_677)">
<path d="M13.2002 0C14.3047 0.000104941 15.2002 0.895495 15.2002 2V13.2002C15.2001 14.3046 14.3046 15.2001 13.2002 15.2002H2C0.895496 15.2002 0.000105675 14.3047 0 13.2002V2C0 0.895431 0.895431 2.5092e-08 2 0H13.2002ZM2.40039 3.2002V12H12.7998V3.2002H2.40039ZM7.2002 11.2002H3.2002V8H7.2002V11.2002ZM12 11.2002H8V8H12V11.2002ZM7.2002 7.2002H3.2002V4H7.2002V7.2002ZM12 7.2002H8V4H12V7.2002Z" fill="#F2F2F2"/>
</g>
<defs>
<clipPath id="clip0_234_677">
<rect width="16" height="16" fill="white"/>
</clipPath>
</defs>
</svg>
